<?xml version="1.0" encoding="UTF-8" standalone="no"?>
<svg width="535px" height="535px" viewBox="0 0 535 535" version="1.1" xmlns="http://www.w3.org/2000/svg" xmlns:xlink="http://www.w3.org/1999/xlink">
    <!-- Generator: Sketch 41.2 (35397) - http://www.bohemiancoding.com/sketch -->
    <title>img-logo-grid</title>
    <desc>Created with Sketch.</desc>
    <defs>
        <circle id="path-1" cx="267.5" cy="267.5" r="267.5"></circle>
        <radialGradient cx="48.9982486%" cy="50%" fx="48.9982486%" fy="50%" r="50.0003494%" id="radialGradient-3">
            <stop stop-color="#FFFFFF" stop-opacity="0" offset="0%"></stop>
            <stop stop-color="#FFFFFF" offset="100%"></stop>
        </radialGradient>
    </defs>
    <g id="Supporting-Pages" stroke="none" stroke-width="1" fill="none" fill-rule="evenodd">
        <g id="About" transform="translate(-453.000000, -591.000000)">
            <g id="img-logo-grid" transform="translate(453.000000, 591.000000)">
                <g id="isometric-grid">
                    <mask id="mask-2" fill="white">
                        <use xlink:href="#path-1"></use>
                    </mask>
                    <g id="Mask"></g>
                    <g mask="url(#mask-2)" stroke="#BEBEBE" stroke-width="2">
                        <g transform="translate(-1269.000000, -381.000000)">
                            <path d="M0.647944525,856.799548 L1584.85323,1772.26518" id="Stroke-3"></path>
                            <path d="M51.744692,827.269533 L1635.94998,1742.7418" id="Stroke-4"></path>
                            <path d="M102.845416,797.740181 L1687.0507,1713.20582" id="Stroke-5"></path>
                            <path d="M153.945477,768.210166 L1738.15076,1683.68243" id="Stroke-6"></path>
                            <path d="M205.046201,738.68015 L1789.25149,1654.15242" id="Stroke-7"></path>
                            <path d="M256.146262,709.150798 L1840.35155,1624.62307" id="Stroke-8"></path>
                            <path d="M307.246986,679.624099 L1891.45227,1595.09637" id="Stroke-9"></path>
                            <path d="M358.343734,650.094747 L1942.55565,1565.56038" id="Stroke-10"></path>
                            <path d="M409.444457,620.564732 L1993.64974,1536.037" id="Stroke-11"></path>
                            <path d="M460.544519,591.034716 L2044.75643,1506.50035" id="Stroke-12"></path>
                            <path d="M511.645243,561.505364 L2095.85053,1476.97763" id="Stroke-13"></path>
                            <path d="M562.745304,531.975349 L2146.95059,1447.44762" id="Stroke-14"></path>
                            <path d="M613.846028,502.44865 L2198.05131,1417.91429" id="Stroke-15"></path>
                            <path d="M664.946089,472.919298 L2249.15137,1388.39157" id="Stroke-16"></path>
                            <path d="M716.043499,443.389283 L2300.25541,1358.85492" id="Stroke-17"></path>
                            <path d="M767.14356,413.859931 L2351.34884,1329.3322" id="Stroke-18"></path>
                            <path d="M818.244284,384.329915 L2402.4562,1299.79555" id="Stroke-19"></path>
                            <path d="M869.344345,354.7999 L2453.54963,1270.27217" id="Stroke-20"></path>
                            <path d="M920.445069,325.270548 L2504.65035,1240.74282" id="Stroke-21"></path>
                            <path d="M971.54513,295.743849 L2555.75041,1211.20948" id="Stroke-22"></path>
                            <path d="M1022.64254,266.214497 L2606.84782,1181.68677" id="Stroke-23"></path>
                            <path d="M1073.74326,236.684482 L2657.95518,1152.15012" id="Stroke-24"></path>
                            <path d="M1124.84333,207.154466 L2709.04861,1122.62673" id="Stroke-25"></path>
                            <path d="M1175.94405,177.625114 L2760.14933,1093.09738" id="Stroke-26"></path>
                            <path d="M1227.04411,148.095099 L2811.24939,1063.56737" id="Stroke-27"></path>
                            <path d="M1278.14417,118.5684 L2862.34946,1034.04067" id="Stroke-28"></path>
                            <path d="M1329.24158,89.0390479 L2913.45349,1004.50468" id="Stroke-29"></path>
                            <path d="M1380.34231,59.5090324 L2964.54759,974.981301" id="Stroke-30"></path>
                            <path d="M1431.44237,29.9796804 L3015.65428,945.445315" id="Stroke-31"></path>
                            <path d="M1482.54309,0.449664946 L3066.74838,915.921933" id="Stroke-32"></path>
                            <path d="M3066.74241,856.861239 L1482.64979,1772.26717" id="Stroke-33"></path>
                            <path d="M3015.63837,827.327907 L1431.54575,1742.73384" id="Stroke-34"></path>
                            <path d="M2964.535,797.798555 L1380.44238,1713.20449" id="Stroke-35"></path>
                            <path d="M2913.43759,768.265223 L1329.33834,1683.67779" id="Stroke-36"></path>
                            <path d="M2862.33421,738.735871 L1278.23497,1654.14181" id="Stroke-37"></path>
                            <path d="M2811.23084,709.202539 L1227.13159,1624.60847" id="Stroke-38"></path>
                            <path d="M2760.1268,679.672523 L1176.02756,1595.08509" id="Stroke-39"></path>
                            <path d="M2709.02343,650.139855 L1124.92418,1565.55242" id="Stroke-40"></path>
                            <path d="M2657.91939,620.609839 L1073.82014,1536.01577" id="Stroke-41"></path>
                            <path d="M2606.81601,591.07717 L1022.71677,1506.4831" id="Stroke-42"></path>
                            <path d="M2555.71264,561.547155 L971.613393,1476.95972" id="Stroke-43"></path>
                            <path d="M2504.6086,532.014486 L920.515983,1447.42705" id="Stroke-44"></path>
                            <path d="M2453.50523,502.484471 L869.412608,1417.8904" id="Stroke-45"></path>
                            <path d="M2402.40185,472.951802 L818.309233,1388.35774" id="Stroke-46"></path>
                            <path d="M2351.29781,443.421787 L767.205195,1358.83435" id="Stroke-47"></path>
                            <path d="M2300.19444,413.889118 L716.10182,1329.30169" id="Stroke-48"></path>
                            <path d="M2249.0904,384.359102 L664.997783,1299.76504" id="Stroke-49"></path>
                            <path d="M2197.98703,354.829087 L613.894408,1270.23502" id="Stroke-50"></path>
                            <path d="M2146.88365,325.296418 L562.791033,1240.70899" id="Stroke-51"></path>
                            <path d="M2095.77961,295.766403 L511.686995,1211.17234" id="Stroke-52"></path>
                            <path d="M2044.67624,266.233734 L460.58362,1181.63967" id="Stroke-53"></path>
                            <path d="M1993.57286,236.703718 L409.480246,1152.10965" id="Stroke-54"></path>
                            <path d="M1942.46883,207.17105 L358.376208,1122.58362" id="Stroke-55"></path>
                            <path d="M1891.36545,177.641034 L307.272833,1093.04697" id="Stroke-56"></path>
                            <path d="M1840.26141,148.108365 L256.168795,1063.5143" id="Stroke-57"></path>
                            <path d="M1789.15804,118.57835 L205.065421,1033.98428" id="Stroke-58"></path>
                            <path d="M1738.05466,89.0456813 L153.962046,1004.45825" id="Stroke-59"></path>
                            <path d="M1686.95394,59.5156659 L102.861322,974.9216" id="Stroke-60"></path>
                            <path d="M1635.85056,29.9823337 L51.7579468,945.388268" id="Stroke-61"></path>
                            <path d="M1584.74653,0.452981658 L0.653909204,915.865549" id="Stroke-62"></path>
                        </g>
                    </g>
                    <circle id="Mask" fill="url(#radialGradient-3)" mask="url(#mask-2)" cx="268.5" cy="267.5" r="267.5"></circle>
                </g>
                <g id="device" transform="translate(170.000000, 121.000000)">
                    <polygon id="Fill-1" fill="#B21F24" points="94.4936471 0.00113846154 0 55.0988821 0 128.766831 94.4936471 73.6671897"></polygon>
                    <polygon id="Fill-2" fill="#ED1C24" points="94.4936471 0.00113846154 94.4936471 73.6671897 188.987294 128.766831 188.987294 55.0988821"></polygon>
                    <polygon id="Fill-3" fill="#ED1C24" points="0 240.582538 94.4936471 295.680282 94.4936471 222.014231 0 166.916487"></polygon>
                    <polygon id="Fill-4" fill="#ED1C24" points="0 129.0634 188.987294 239.258887 188.987294 165.592836 0 55.3973487"></polygon>
                    <polygon id="Fill-5" fill="#B21F24" points="94.4936471 222.0148 94.4936471 295.680851 188.987294 240.583108 188.987294 166.917056"></polygon>
                </g>
            </g>
        </g>
    </g>
</svg>